<?xml version="1.0" encoding="utf-8"?>
<svg viewBox="408.569 194.515 16.591 10.191" xmlns="http://www.w3.org/2000/svg">
    <g id="g-3" style="" transform="matrix(0.97622, 0, 0, 1, 408.569409, 191.931082)">
        <path style="stroke: none; fill-rule: nonzero; fill-opacity: 1; fill: rgb(237, 162, 0);" d="M 9 0.588 C 5.481 0.7 2.566 3.201 2.078 6.588 L 0 6.588 L 3 9.588 L 6 6.588 L 4.102 6.588 C 4.566 4.307 6.588 2.675 9 2.588 C 12.118 2.475 15.07 3.627 14.293 6.628 C 13.516 9.629 15.905 11.274 16.293 6.695 C 16.681 2.116 12.145 0.488 9 0.588 Z"/>
    </g>
    <path fill-rule="evenodd" d="M 419.91 200.657 L 419.91 201.004 C 419.91 201.246 419.868 201.476 419.81 201.699 L 420.925 201.699 L 420.925 202.742 L 419.271 202.742 C 418.755 203.371 417.975 203.783 417.094 203.783 C 416.214 203.783 415.435 203.371 414.919 202.742 L 413.186 202.742 L 413.186 201.699 L 414.381 201.699 C 414.323 201.476 414.281 201.246 414.281 201.004 L 414.281 200.657 L 413.186 200.657 L 413.186 199.615 L 414.281 199.615 L 414.281 198.922 C 414.281 198.802 414.301 198.689 414.316 198.573 L 413.186 198.573 L 413.186 197.531 L 414.673 197.531 C 414.943 197.078 415.335 196.709 415.809 196.465 L 414.82 195.49 L 415.566 194.754 L 416.985 196.153 C 417.021 196.152 417.018 196.146 417.056 196.146 C 417.068 196.146 417.119 196.152 417.132 196.153 L 418.544 194.754 L 419.291 195.49 L 418.331 196.438 C 418.826 196.681 419.237 197.061 419.516 197.531 L 420.925 197.531 L 420.925 198.573 L 419.874 198.573 C 419.888 198.689 419.91 198.802 419.91 198.922 L 419.91 199.615 L 420.925 199.615 L 420.925 200.657 L 419.91 200.657 Z M 415.894 198.622 L 415.894 199.591 L 418.217 199.591 L 418.217 198.622 L 415.894 198.622 Z M 415.894 200.557 L 415.894 201.526 L 418.217 201.526 L 418.217 200.557 L 415.894 200.557 Z" style="fill: rgb(89, 168, 105);"/>
    <g id="g-4" style="" transform="matrix(-0.937622, 0, 0, -1, 425.49336, 208.288992)">
        <path style="stroke: none; fill-rule: nonzero; fill-opacity: 1; fill: rgb(237, 162, 0);" d="M 9 0.588 C 5.481 0.7 2.566 3.201 2.078 6.588 L 0 6.588 L 3 9.588 L 6 6.588 L 4.102 6.588 C 4.566 4.307 6.588 2.675 9 2.588 C 12.118 2.475 15.07 3.627 14.293 6.628 C 13.516 9.629 15.905 11.274 16.293 6.695 C 16.681 2.116 12.145 0.488 9 0.588 Z"/>
    </g>
</svg>