<?xml version="1.0" encoding="utf-8"?>
<svg viewBox="408.569 194.515 16.591 10.191" xmlns="http://www.w3.org/2000/svg">
    <g id="g-3" style="" transform="matrix(0.97622, 0, 0, 1, 408.569409, 191.931082)">
        <path style="stroke: none; fill-rule: nonzero; fill-opacity: 1; fill: rgb(237, 0, 0);" d="M 9 0.588 C 5.481 0.7 2.566 3.201 2.078 6.588 L 0 6.588 L 3 9.588 L 6 6.588 L 4.102 6.588 C 4.566 4.307 6.588 2.675 9 2.588 C 12.118 2.475 15.07 3.627 14.293 6.628 C 13.516 9.629 15.905 11.274 16.293 6.695 C 16.681 2.116 12.145 0.488 9 0.588 Z"/>
    </g>
    <g id="g-4" style="" transform="matrix(-0.937622, 0, 0, -1, 425.49336, 208.288992)">
        <path style="stroke: none; fill-rule: nonzero; fill-opacity: 1; fill: rgb(237, 0, 0);" d="M 9 0.588 C 5.481 0.7 2.566 3.201 2.078 6.588 L 0 6.588 L 3 9.588 L 6 6.588 L 4.102 6.588 C 4.566 4.307 6.588 2.675 9 2.588 C 12.118 2.475 15.07 3.627 14.293 6.628 C 13.516 9.629 15.905 11.274 16.293 6.695 C 16.681 2.116 12.145 0.488 9 0.588 Z"/>
    </g>
</svg>