<?xml version="1.0" encoding="utf-8"?>
<svg viewBox="377.122 173.809 42.2 36.101" xmlns="http://www.w3.org/2000/svg">
    <g style="" transform="matrix(2.456048, 0, 0, 2.456048, -549.107438, -305.638803)">
        <g id="g-5" style="" transform="matrix(0.937622, 0, 0, 1, 377.121948, 194.627426)">
            <path style="stroke: none; fill-rule: nonzero; fill-opacity: 1; fill: rgb(237, 162, 0);" d="M 9 0.588 C 5.481 0.7 2.566 3.201 2.078 6.588 L 0 6.588 L 3 9.588 L 6 6.588 L 4.102 6.588 C 4.566 4.307 6.588 2.675 9 2.588 C 12.118 2.475 15.07 3.627 14.293 6.628 C 13.516 9.629 15.905 11.274 16.293 6.695 C 16.681 2.116 12.145 0.488 9 0.588 Z"/>
        </g>
        <polygon fill="#59A869" fill-rule="evenodd" points="383.086 198.064 389.547 202.679 383.086 207.294" style=""/>
        <g id="g-6" style="" transform="matrix(-0.937622, 0, 0, -1, 394.303986, 210.493591)">
            <path style="stroke: none; fill-rule: nonzero; fill-opacity: 1; fill: rgb(237, 162, 0);" d="M 9 0.588 C 5.481 0.7 2.566 3.201 2.078 6.588 L 0 6.588 L 3 9.588 L 6 6.588 L 4.102 6.588 C 4.566 4.307 6.588 2.675 9 2.588 C 12.118 2.475 15.07 3.627 14.293 6.628 C 13.516 9.629 15.905 11.274 16.293 6.695 C 16.681 2.116 12.145 0.488 9 0.588 Z"/>
        </g>
    </g>
</svg>